<svg width="840" height="559.65" role="figure" tabindex="0" xmlns="http://www.w3.org/2000/svg" xmlns:xlink="http://www.w3.org/1999/xlink"><svg><style>text {
      font-family: "Marianne", -apple-system, BlinkMacSystemFont, "Segoe UI",
        Roboto, Oxygen-Sans, Ubuntu, Cantarell, "Helvetica Neue", sans-serif;
    }</style></svg><g transform="translate(420 279.825)"><g><path d="M251.94860171829157,96.57863488990554A269.825,269.825,0,0,1,-204.65134761865167,175.8503811280197L-90.95826132925711,78.15753527945061A119.92499999999998,119.92499999999998,0,0,0,111.97975006417535,42.92483198062419Z" fill="#FF9575" stroke="#FFFFFF" stroke-width="0.15"/><path d="M1.6522016128996727e-14,-269.825A269.825,269.825,0,0,1,251.94860171829157,96.57863488990554L111.97975006417535,42.92483198062419A119.92499999999998,119.92499999999998,0,0,0,7.343288369387315e-15,-119.92499999999998Z" fill="#DCE0E9" stroke="#FFFFFF" stroke-width="0.15"/><path d="M-204.65134761865167,175.8503811280197A269.825,269.825,0,0,1,-4.9566048386990184e-14,-269.825L-2.2029865108161944e-14,-119.92499999999998A119.92499999999998,119.92499999999998,0,0,0,-90.95826132925711,78.15753527945061Z" fill="#FFE552" stroke="#FFFFFF" stroke-width="0.15"/><text x="33.33421626708462" y="192.0028532362455" dy="-1.3em" text-anchor="middle" fill="black" class="svelte-1acxcva">Élevage<tspan x="33.33421626708462" y="192.0028532362455" dy="0">de bovins</tspan><tspan font-weight="bold" x="33.33421626708462" dy="1.3em">33 %</tspan></text><text x="160.57573708097567" y="-110.41602368271272" dy="4px" text-anchor="middle" fill="black" class="svelte-1acxcva">Autres<tspan font-weight="bold" x="160.57573708097567" dy="1.3em">31 %</tspan></text><text x="-177.09624781450466" y="-81.32148938025885" dy="-1.3em" text-anchor="middle" fill="black" class="svelte-1acxcva">Grandes<tspan x="-177.09624781450466" y="-81.32148938025885" dy="0">cultures</tspan><tspan font-weight="bold" x="-177.09624781450466" dy="1.3em">36 %</tspan></text></g></g><text alignment-baseline="text-top" font-weight="bold" x="420" y="279.825" text-anchor="middle" fill="black" class="svelte-1acxcva">Total :<tspan font-weight="normal" x="420" dy="20px">269 000 km²</tspan></text></svg>