<svg width="840" height="298.02500000000003" role="figure" tabindex="0" xmlns="http://www.w3.org/2000/svg" xmlns:xlink="http://www.w3.org/1999/xlink"><svg><style>text {
      font-family: "Marianne", -apple-system, BlinkMacSystemFont, "Segoe UI",
        Roboto, Oxygen-Sans, Ubuntu, Cantarell, "Helvetica Neue", sans-serif;
    }</style></svg><g transform="translate(20 30)"><g><text x="170" y="0" dy="0" font-size="13" font-weight="normal">Nombre</text><text x="170" y="0" dy="14" font-size="13" font-weight="normal">d'entreprises</text><text x="332.5" y="0" dy="0" font-size="13" font-weight="normal">Salariés</text><text x="332.5" y="0" dy="14" font-size="13" font-weight="normal">(en ETP)</text><text x="495" y="0" dy="0" font-size="13" font-weight="normal">Chiffre</text><text x="495" y="0" dy="14" font-size="13" font-weight="normal">d'affaires</text><text x="657.5" y="0" dy="0" font-size="13" font-weight="normal">Valeur</text><text x="657.5" y="0" dy="14" font-size="13" font-weight="normal">ajoutée</text></g><g tabindex="0" class="bar" role="list" aria-label="bar"><g transform="translate(0 10.988081586083702)"><text x="-10" y="31.30406976744186" dy="0" text-anchor="start" dominant-baseline="hanging" font-size="13" font-weight="normal" fill="black">Microentreprises</text></g><rect width="128.70000000000002" height="40.37616279069768" x="170" y="31.30406976744186" fill="#fff"/><rect width="128.70000000000002" height="40.37616279069768" x="170" y="31.30406976744186" fill="#838383"/><text transform="translate(0 11.188081395348838)" text-anchor="start" x="170" dx="8" y="31.30406976744186" dominant-baseline="hanging" font-size="13" fill="white">15 858</text><rect width="128.70000000000002" height="40.37616279069768" x="332.5" y="31.30406976744186" fill="#fff"/><rect width="10.98649605016063" height="40.37616279069768" x="332.5" y="31.30406976744186" fill="#14607A"/><text transform="translate(0 11.188081395348838)" text-anchor="start" x="332.5" dx="15.98649605016063" y="31.30406976744186" dominant-baseline="hanging" font-size="13" fill="black">16 501</text> Md€<rect width="128.70000000000002" height="40.37616279069768" x="495" y="31.30406976744186" fill="#fff"/><rect width="4.7638069015759426" height="40.37616279069768" x="495" y="31.30406976744186" fill="#C4D9E1"/><text transform="translate(0 11.188081395348838)" text-anchor="start" x="495" dx="9.763806901575943" y="31.30406976744186" dominant-baseline="hanging" font-size="13" fill="black">3 Md€</text> Md€<rect width="128.70000000000002" height="40.37616279069768" x="657.5" y="31.30406976744186" fill="#fff"/><rect width="1.3746788656646063" height="40.37616279069768" x="657.5" y="31.30406976744186" fill="#FCDA16"/><text transform="translate(0 11.188081395348838)" text-anchor="start" x="657.5" dx="6.374678865664606" y="31.30406976744186" dominant-baseline="hanging" font-size="13" fill="black">1 Md€</text></g><g tabindex="0" class="bar" role="list" aria-label="bar"><g transform="translate(0 10.988081586083702)"><text x="-10" y="88.98430232558141" dy="0" text-anchor="start" dominant-baseline="hanging" font-size="13" font-weight="normal" fill="black">PME hors microentreprises</text></g><rect width="128.70000000000002" height="40.37616279069768" x="170" y="88.98430232558141" fill="#fff"/><rect width="22.959534619750286" height="40.37616279069768" x="170" y="88.98430232558141" fill="#838383"/><text transform="translate(0 11.188081395348838)" text-anchor="start" x="170" dx="27.959534619750286" y="88.98430232558141" dominant-baseline="hanging" font-size="13" fill="black">2 829</text><rect width="128.70000000000002" height="40.37616279069768" x="332.5" y="88.98430232558141" fill="#fff"/><rect width="60.65110424782332" height="40.37616279069768" x="332.5" y="88.98430232558141" fill="#14607A"/><text transform="translate(0 11.188081395348838)" text-anchor="start" x="332.5" dx="65.65110424782333" y="88.98430232558141" dominant-baseline="hanging" font-size="13" fill="black">91 094</text> Md€<rect width="128.70000000000002" height="40.37616279069768" x="495" y="88.98430232558141" fill="#fff"/><rect width="38.47308363955818" height="40.37616279069768" x="495" y="88.98430232558141" fill="#C4D9E1"/><text transform="translate(0 11.188081395348838)" text-anchor="start" x="495" dx="43.47308363955818" y="88.98430232558141" dominant-baseline="hanging" font-size="13" fill="black">28 Md€</text> Md€<rect width="128.70000000000002" height="40.37616279069768" x="657.5" y="88.98430232558141" fill="#fff"/><rect width="8.66033897215586" height="40.37616279069768" x="657.5" y="88.98430232558141" fill="#FCDA16"/><text transform="translate(0 11.188081395348838)" text-anchor="start" x="657.5" dx="13.66033897215586" y="88.98430232558141" dominant-baseline="hanging" font-size="13" fill="black">6 Md€</text></g><g tabindex="0" class="bar" role="list" aria-label="bar"><g transform="translate(0 4.6880813953488385)"><text x="-10" y="146.66453488372093" dy="0" text-anchor="start" dominant-baseline="hanging" font-size="13" font-weight="normal" fill="black">Entreprises de taille</text><text x="-10" y="146.66453488372093" dy="13" text-anchor="start" dominant-baseline="hanging" font-size="13" font-weight="normal" fill="black">interméd. (ETI)</text></g><rect width="128.70000000000002" height="40.37616279069768" x="170" y="146.66453488372093" fill="#fff"/><rect width="2.645743473325766" height="40.37616279069768" x="170" y="146.66453488372093" fill="#838383"/><text transform="translate(0 11.188081395348838)" text-anchor="start" x="170" dx="7.645743473325766" y="146.66453488372093" dominant-baseline="hanging" font-size="13" fill="black">326</text><rect width="128.70000000000002" height="40.37616279069768" x="332.5" y="146.66453488372093" fill="#fff"/><rect width="128.70000000000002" height="40.37616279069768" x="332.5" y="146.66453488372093" fill="#14607A"/><text transform="translate(0 11.188081395348838)" text-anchor="start" x="332.5" dx="8" y="146.66453488372093" dominant-baseline="hanging" font-size="13" fill="white">193 299</text> Md€<rect width="128.70000000000002" height="40.37616279069768" x="495" y="146.66453488372093" fill="#fff"/><rect width="119.91281001917702" height="40.37616279069768" x="495" y="146.66453488372093" fill="#C4D9E1"/><text transform="translate(0 11.188081395348838)" text-anchor="start" x="495" dx="8" y="146.66453488372093" dominant-baseline="hanging" font-size="13" fill="black">87 Md€</text> Md€<rect width="128.70000000000002" height="40.37616279069768" x="657.5" y="146.66453488372093" fill="#fff"/><rect width="25.37571699467544" height="40.37616279069768" x="657.5" y="146.66453488372093" fill="#FCDA16"/><text transform="translate(0 11.188081395348838)" text-anchor="start" x="657.5" dx="30.37571699467544" y="146.66453488372093" dominant-baseline="hanging" font-size="13" fill="black">18 Md€</text></g><g tabindex="0" class="bar" role="list" aria-label="bar"><g transform="translate(0 10.988081586083702)"><text x="-10" y="204.34476744186048" dy="0" text-anchor="start" dominant-baseline="hanging" font-size="13" font-weight="normal" fill="black">Grandes entreprises (GE)</text></g><rect width="128.70000000000002" height="40.37616279069768" x="170" y="204.34476744186048" fill="#fff"/><rect width="0.19477866061293986" height="40.37616279069768" x="170" y="204.34476744186048" fill="#838383"/><text transform="translate(0 11.188081395348838)" text-anchor="start" x="170" dx="5.19477866061294" y="204.34476744186048" dominant-baseline="hanging" font-size="13" fill="black">24</text><rect width="128.70000000000002" height="40.37616279069768" x="332.5" y="204.34476744186048" fill="#fff"/><rect width="108.15316840749306" height="40.37616279069768" x="332.5" y="204.34476744186048" fill="#14607A"/><text transform="translate(0 11.188081395348838)" text-anchor="start" x="332.5" dx="8" y="204.34476744186048" dominant-baseline="hanging" font-size="13" fill="white">162 439</text> Md€<rect width="128.70000000000002" height="40.37616279069768" x="495" y="204.34476744186048" fill="#fff"/><rect width="128.70000000000002" height="40.37616279069768" x="495" y="204.34476744186048" fill="#C4D9E1"/><text transform="translate(0 11.188081395348838)" text-anchor="start" x="495" dx="8" y="204.34476744186048" dominant-baseline="hanging" font-size="13" fill="black">93 Md€</text> Md€<rect width="128.70000000000002" height="40.37616279069768" x="657.5" y="204.34476744186048" fill="#fff"/><rect width="23.481224756537856" height="40.37616279069768" x="657.5" y="204.34476744186048" fill="#FCDA16"/><text transform="translate(0 11.188081395348838)" text-anchor="start" x="657.5" dx="28.481224756537856" y="204.34476744186048" dominant-baseline="hanging" font-size="13" fill="black">17 Md€</text></g></g></svg>