<svg width="840" height="596.0500000000001" role="figure" tabindex="0" xmlns="http://www.w3.org/2000/svg" xmlns:xlink="http://www.w3.org/1999/xlink"><svg><style>text {
      font-family: "Marianne", -apple-system, BlinkMacSystemFont, "Segoe UI",
        Roboto, Oxygen-Sans, Ubuntu, Cantarell, "Helvetica Neue", sans-serif;
    }</style></svg><g transform="translate(50 50)"><g class="grid vertical-grid"><line x1="0" x2="0" y1="0" y2="496.05000000000007" stroke="#e0e0e0" stroke-width="1"/><line x1="320" x2="320" y1="0" y2="496.05000000000007" stroke="#e0e0e0" stroke-width="1"/><line x1="640" x2="640" y1="0" y2="496.05000000000007" stroke="#e0e0e0" stroke-width="1"/></g><g/><g/><g style="font-size:12px;transform: translateY(501.05000000000007px)" fill="none" font-size="10" font-family="sans-serif" text-anchor="middle"> <g class="tick" opacity="1" transform="translate(0.5,0)"><line stroke="#ccd0d8" y2="-496.05000000000007" opacity="0"/><text fill="currentColor" y="3" dy="0.71em">2011</text></g><g class="tick" opacity="1" transform="translate(320.5,0)"><line stroke="#ccd0d8" y2="-496.05000000000007" opacity="0"/><text fill="currentColor" y="3" dy="0.71em">2017</text></g><g class="tick" opacity="1" transform="translate(640.5,0)"><line stroke="#ccd0d8" y2="-496.05000000000007" opacity="0"/><text fill="currentColor" y="3" dy="0.71em">2023</text></g></g><g style="font-size:12px" fill="none" font-size="10" font-family="sans-serif" text-anchor="end"><rect x="0" y="306.20370370370375" width="640" height="2" fill="#999999"/>  <g class="tick" opacity="1" transform="translate(0,401.1557692307693)"><line stroke="#ccd0d8" x2="640" opacity=".5"/><text fill="currentColor" x="-3" dy="0.32em">-5</text></g><g class="tick" opacity="1" transform="translate(0,210.36730769230775)"><line stroke="#ccd0d8" x2="640" opacity=".5"/><text fill="currentColor" x="-3" dy="0.32em">5</text></g><g class="tick" opacity="1" transform="translate(0,305.7615384615385)"><line stroke="#ccd0d8" x2="640" opacity=".5"/><text fill="currentColor" x="-3" dy="0.32em">0</text></g><g class="tick" opacity="1" transform="translate(0,114.97307692307692)"><line stroke="#ccd0d8" x2="640" opacity=".5"/><text fill="currentColor" x="-3" dy="0.32em">10</text></g><g class="tick" opacity="1" transform="translate(0,19.578846153846143)"><line stroke="#ccd0d8" x2="640" opacity=".5"/><text fill="currentColor" x="-3" dy="0.32em">15</text></g></g><g><g tabindex="0" role="list" aria-label="line"><path d="M0,179.01681346153848L53.33333333333333,163.69650000000001L106.66666666666666,180.6385153846154L160,194.203575L213.33333333333331,191.91411346153848L266.6666666666667,205.57456730769232L320,199.92722884615384L373.33333333333337,203.2469480769231L426.66666666666663,192.41016346153847L480,214.86596538461544L533.3333333333334,164.2497865384616L586.6666666666666,198.55355192307698L640,202.9035288461539" stroke="#a8a7ae" stroke-width="3" stroke-linecap="round" stroke-linejoin="round" fill="none"/></g></g><g><text x="645" y="202.9035288461539" text-anchor="left" font-size="12" font-weight="600" fill="#a8a7ae">Ensemble IAA</text><text x="645" y="202.9035288461539" text-anchor="left" font-size="12" font-weight="600" fill="#a8a7ae">Ensemble IAA</text></g></g></svg>