<svg width="840" height="596.0500000000001" role="figure" tabindex="0" xmlns="http://www.w3.org/2000/svg" xmlns:xlink="http://www.w3.org/1999/xlink"><svg><style>text {
      font-family: "Marianne", -apple-system, BlinkMacSystemFont, "Segoe UI",
        Roboto, Oxygen-Sans, Ubuntu, Cantarell, "Helvetica Neue", sans-serif;
    }</style></svg><g transform="translate(-20 59.605000000000004)" class="svelte-qtttv0"><g style="font-size: 12px; transform: translateY(0px);" fill="none" font-size="10" font-family="sans-serif" text-anchor="middle"><g class="tick" opacity="1" transform="translate(181.75,0)"><line stroke="#ccd0d8" y2="486.44500000000005" opacity=".5"/><text fill="currentColor" y="-3" dy="0em">Chiffre d'affaires</text></g><g class="tick" opacity="1" transform="translate(358,0)"><line stroke="#ccd0d8" y2="486.44500000000005" opacity=".5"/><text fill="currentColor" y="-3" dy="0em">Effectifs</text></g><g class="tick" opacity="1" transform="translate(534.25,0)"><line stroke="#ccd0d8" y2="486.44500000000005" opacity=".5"/><text fill="currentColor" y="-3" dy="0em">Valeur ajoutée</text></g></g><g style="&#xA;   font-size: 12px;&#xA;    color: #888888;&#xA;    transform: translateX(166.25px);&#xA;            " fill="none" font-size="10" font-family="sans-serif" text-anchor="end"> <g class="tick" opacity="1" transform="translate(0,49.14450000000001)"><line stroke="#ccd0d8" x2="810" opacity="0"/><text fill="currentColor" x="-3" dy="0.32em">1</text></g><g class="tick" opacity="1" transform="translate(0,97.78900000000002)"><line stroke="#ccd0d8" x2="810" opacity="0"/><text fill="currentColor" x="-3" dy="0.32em">2</text></g><g class="tick" opacity="1" transform="translate(0,146.4335)"><line stroke="#ccd0d8" x2="810" opacity="0"/><text fill="currentColor" x="-3" dy="0.32em">3</text></g><g class="tick" opacity="1" transform="translate(0,195.07800000000003)"><line stroke="#ccd0d8" x2="810" opacity="0"/><text fill="currentColor" x="-3" dy="0.32em">4</text></g><g class="tick" opacity="1" transform="translate(0,243.72250000000003)"><line stroke="#ccd0d8" x2="810" opacity="0"/><text fill="currentColor" x="-3" dy="0.32em">5</text></g><g class="tick" opacity="1" transform="translate(0,292.367)"><line stroke="#ccd0d8" x2="810" opacity="0"/><text fill="currentColor" x="-3" dy="0.32em">6</text></g><g class="tick" opacity="1" transform="translate(0,341.0115)"><line stroke="#ccd0d8" x2="810" opacity="0"/><text fill="currentColor" x="-3" dy="0.32em">7</text></g><g class="tick" opacity="1" transform="translate(0,389.65600000000006)"><line stroke="#ccd0d8" x2="810" opacity="0"/><text fill="currentColor" x="-3" dy="0.32em">8</text></g><g class="tick" opacity="1" transform="translate(0,438.30050000000006)"><line stroke="#ccd0d8" x2="810" opacity="0"/><text fill="currentColor" x="-3" dy="0.32em">9</text></g><g class="tick" opacity="1" transform="translate(0,486.94500000000005)"><line stroke="#ccd0d8" x2="810" opacity="0"/><text fill="currentColor" x="-3" dy="0.32em">10</text></g></g><path d="M181.25,48.64450000000001C181.25,48.64450000000001,298.75,81.07416666666668,357.5,97.28900000000002C416.25,113.50383333333335,533.75,145.9335,533.75,145.9335" stroke="#69C2DE" stroke-width="3" stroke-linecap="round" fill="none"/><circle cx="181.25" cy="48.64450000000001" r="7" fill="#69C2DE" stroke="#69C2DE"/><circle cx="357.5" cy="97.28900000000002" r="7" fill="#69C2DE" stroke="#69C2DE"/><circle cx="533.75" cy="145.9335" r="7" fill="#69C2DE" stroke="#69C2DE"/><path d="M181.25,97.28900000000002C181.25,97.28900000000002,298.75,32.42966666666668,357.5,48.64450000000001C416.25,64.85933333333334,533.75,194.57800000000003,533.75,194.57800000000003" stroke="#DA6C6C" stroke-width="3" stroke-linecap="round" fill="none"/><circle cx="181.25" cy="97.28900000000002" r="7" fill="#DA6C6C" stroke="#DA6C6C"/><circle cx="357.5" cy="48.64450000000001" r="7" fill="#DA6C6C" stroke="#DA6C6C"/><circle cx="533.75" cy="194.57800000000003" r="7" fill="#DA6C6C" stroke="#DA6C6C"/><path d="M181.25,145.9335C181.25,145.9335,298.75,154.04091666666667,357.5,145.9335C416.25,137.82608333333334,533.75,97.28900000000002,533.75,97.28900000000002" stroke="#E09E59" stroke-width="3" stroke-linecap="round" fill="none"/><circle cx="181.25" cy="145.9335" r="7" fill="#E09E59" stroke="#E09E59"/><circle cx="357.5" cy="145.9335" r="7" fill="#E09E59" stroke="#E09E59"/><circle cx="533.75" cy="97.28900000000002" r="7" fill="#E09E59" stroke="#E09E59"/><path d="M181.25,194.57800000000003C181.25,194.57800000000003,298.75,218.90025000000003,357.5,194.57800000000003C416.25,170.25575000000003,533.75,48.64450000000001,533.75,48.64450000000001" stroke="#BE7CD1" stroke-width="3" stroke-linecap="round" fill="none"/><circle cx="181.25" cy="194.57800000000003" r="7" fill="#BE7CD1" stroke="#BE7CD1"/><circle cx="357.5" cy="194.57800000000003" r="7" fill="#BE7CD1" stroke="#BE7CD1"/><circle cx="533.75" cy="48.64450000000001" r="7" fill="#BE7CD1" stroke="#BE7CD1"/><path d="M181.25,243.22250000000003C181.25,243.22250000000003,298.75,243.22250000000003,357.5,243.22250000000003C416.25,243.22250000000003,533.75,243.22250000000003,533.75,243.22250000000003" stroke="#FFC611" stroke-width="3" stroke-linecap="round" fill="none"/><circle cx="181.25" cy="243.22250000000003" r="7" fill="#FFC611" stroke="#FFC611"/><circle cx="357.5" cy="243.22250000000003" r="7" fill="#FFC611" stroke="#FFC611"/><circle cx="533.75" cy="243.22250000000003" r="7" fill="#FFC611" stroke="#FFC611"/><path d="M181.25,291.867C181.25,291.867,298.75,381.0485833333334,357.5,389.15600000000006C416.25,397.2634166666667,533.75,340.5115,533.75,340.5115" stroke="#a6a6a6" stroke-width="3" stroke-linecap="round" fill="none"/><circle cx="181.25" cy="291.867" r="7" fill="#a6a6a6" stroke="#a6a6a6"/><circle cx="357.5" cy="389.15600000000006" r="7" fill="#a6a6a6" stroke="#a6a6a6"/><circle cx="533.75" cy="340.5115" r="7" fill="#a6a6a6" stroke="#a6a6a6"/><path d="M181.25,340.5115C181.25,340.5115,298.75,470.2301666666667,357.5,486.44500000000005C416.25,502.6598333333334,533.75,437.80050000000006,533.75,437.80050000000006" stroke="#808080" stroke-width="3" stroke-linecap="round" fill="none"/><circle cx="181.25" cy="340.5115" r="7" fill="#808080" stroke="#808080"/><circle cx="357.5" cy="486.44500000000005" r="7" fill="#808080" stroke="#808080"/><circle cx="533.75" cy="437.80050000000006" r="7" fill="#808080" stroke="#808080"/><path d="M181.25,389.15600000000006C181.25,389.15600000000006,298.75,308.08183333333335,357.5,291.867C416.25,275.6521666666667,533.75,291.867,533.75,291.867" stroke="#44bfab" stroke-width="3" stroke-linecap="round" fill="none"/><circle cx="181.25" cy="389.15600000000006" r="7" fill="#44bfab" stroke="#44bfab"/><circle cx="357.5" cy="291.867" r="7" fill="#44bfab" stroke="#44bfab"/><circle cx="533.75" cy="291.867" r="7" fill="#44bfab" stroke="#44bfab"/><path d="M181.25,437.80050000000006C181.25,437.80050000000006,298.75,348.6189166666667,357.5,340.5115C416.25,332.40408333333335,533.75,389.15600000000006,533.75,389.15600000000006" stroke="#5e5e5e" stroke-width="3" stroke-linecap="round" fill="none"/><circle cx="181.25" cy="437.80050000000006" r="7" fill="#5e5e5e" stroke="#5e5e5e"/><circle cx="357.5" cy="340.5115" r="7" fill="#5e5e5e" stroke="#5e5e5e"/><circle cx="533.75" cy="389.15600000000006" r="7" fill="#5e5e5e" stroke="#5e5e5e"/><path d="M181.25,486.44500000000005C181.25,486.44500000000005,298.75,437.80050000000006,357.5,437.80050000000006C416.25,437.80050000000006,533.75,486.44500000000005,533.75,486.44500000000005" stroke="#454545" stroke-width="3" stroke-linecap="round" fill="none"/><circle cx="181.25" cy="486.44500000000005" r="7" fill="#454545" stroke="#454545"/><circle cx="357.5" cy="437.80050000000006" r="7" fill="#454545" stroke="#454545"/><circle cx="533.75" cy="486.44500000000005" r="7" fill="#454545" stroke="#454545"/><text x="577.75" y="145.9335" text-anchor="left" fill="#69C2DE" font-weight="bold" font-size="12" class="svelte-qtttv0">Produits</text><text x="577.75" y="157.9335" text-anchor="left" fill="#69C2DE" font-weight="bold" font-size="12" class="svelte-qtttv0">laitiers</text><text x="577.75" y="194.57800000000003" text-anchor="left" fill="#DA6C6C" font-weight="bold" font-size="12" class="svelte-qtttv0">Transformation</text><text x="577.75" y="206.57800000000003" text-anchor="left" fill="#DA6C6C" font-weight="bold" font-size="12" class="svelte-qtttv0">de viande</text><text x="577.75" y="97.28900000000002" text-anchor="left" fill="#E09E59" font-weight="bold" font-size="12" class="svelte-qtttv0">Autres</text><text x="577.75" y="109.28900000000002" text-anchor="left" fill="#E09E59" font-weight="bold" font-size="12" class="svelte-qtttv0">produits alimentaires</text><text x="577.75" y="48.64450000000001" text-anchor="left" fill="#BE7CD1" font-weight="bold" font-size="12" class="svelte-qtttv0">Boissons</text><text x="577.75" y="243.22250000000003" text-anchor="left" fill="#FFC611" font-weight="bold" font-size="12" class="svelte-qtttv0">Boulangerie-pâtisserie</text><text x="577.75" y="255.22250000000003" text-anchor="left" fill="#FFC611" font-weight="bold" font-size="12" class="svelte-qtttv0">et pâtes</text><text x="577.75" y="340.5115" text-anchor="left" fill="#a6a6a6" font-weight="bold" font-size="12" class="svelte-qtttv0">Aliments</text><text x="577.75" y="352.5115" text-anchor="left" fill="#a6a6a6" font-weight="bold" font-size="12" class="svelte-qtttv0">pour animaux</text><text x="577.75" y="437.80050000000006" text-anchor="left" fill="#808080" font-weight="bold" font-size="12" class="svelte-qtttv0">Huiles</text><text x="577.75" y="449.80050000000006" text-anchor="left" fill="#808080" font-weight="bold" font-size="12" class="svelte-qtttv0">et graisses</text><text x="577.75" y="291.867" text-anchor="left" fill="#44bfab" font-weight="bold" font-size="12" class="svelte-qtttv0">Fruits</text><text x="577.75" y="303.867" text-anchor="left" fill="#44bfab" font-weight="bold" font-size="12" class="svelte-qtttv0">et légumes transformés</text><text x="577.75" y="389.15600000000006" text-anchor="left" fill="#5e5e5e" font-weight="bold" font-size="12" class="svelte-qtttv0">Farines</text><text x="577.75" y="401.15600000000006" text-anchor="left" fill="#5e5e5e" font-weight="bold" font-size="12" class="svelte-qtttv0">et amylacés</text><text x="577.75" y="486.44500000000005" text-anchor="left" fill="#454545" font-weight="bold" font-size="12" class="svelte-qtttv0">Produits</text><text x="577.75" y="498.44500000000005" text-anchor="left" fill="#454545" font-weight="bold" font-size="12" class="svelte-qtttv0">de la mer</text></g></svg>