<svg width="840" height="550.1999999999999" role="figure" tabindex="0" xmlns="http://www.w3.org/2000/svg" xmlns:xlink="http://www.w3.org/1999/xlink"><svg><style>text {
      font-family: "Marianne", -apple-system, BlinkMacSystemFont, "Segoe UI",
        Roboto, Oxygen-Sans, Ubuntu, Cantarell, "Helvetica Neue", sans-serif;
    }</style></svg><g transform="translate(40 30)"><g class="grid vertical-grid"><line x1="20" x2="20" y1="0" y2="470.19999999999993" stroke="#e0e0e0" stroke-width="1"/><line x1="122.85714285714286" x2="122.85714285714286" y1="0" y2="470.19999999999993" stroke="#e0e0e0" stroke-width="1"/><line x1="225.7142857142857" x2="225.7142857142857" y1="0" y2="470.19999999999993" stroke="#e0e0e0" stroke-width="1"/><line x1="328.57142857142856" x2="328.57142857142856" y1="0" y2="470.19999999999993" stroke="#e0e0e0" stroke-width="1"/><line x1="431.4285714285714" x2="431.4285714285714" y1="0" y2="470.19999999999993" stroke="#e0e0e0" stroke-width="1"/><line x1="534.2857142857142" x2="534.2857142857142" y1="0" y2="470.19999999999993" stroke="#e0e0e0" stroke-width="1"/><line x1="637.1428571428571" x2="637.1428571428571" y1="0" y2="470.19999999999993" stroke="#e0e0e0" stroke-width="1"/></g><g/><g/><g style="font-size:12px;transform: translateY(475.19999999999993px)" fill="none" font-size="10" font-family="sans-serif" text-anchor="middle"> <g class="tick" opacity="1" transform="translate(20.5,0)"><line stroke="#ccd0d8" y2="-470.19999999999993" opacity="0"/><text fill="currentColor" y="3" dy="0.71em">1990</text></g><g class="tick" opacity="1" transform="translate(123.35714285714286,0)"><line stroke="#ccd0d8" y2="-470.19999999999993" opacity="0"/><text fill="currentColor" y="3" dy="0.71em">1995</text></g><g class="tick" opacity="1" transform="translate(226.2142857142857,0)"><line stroke="#ccd0d8" y2="-470.19999999999993" opacity="0"/><text fill="currentColor" y="3" dy="0.71em">2000</text></g><g class="tick" opacity="1" transform="translate(329.07142857142856,0)"><line stroke="#ccd0d8" y2="-470.19999999999993" opacity="0"/><text fill="currentColor" y="3" dy="0.71em">2005</text></g><g class="tick" opacity="1" transform="translate(431.9285714285714,0)"><line stroke="#ccd0d8" y2="-470.19999999999993" opacity="0"/><text fill="currentColor" y="3" dy="0.71em">2010</text></g><g class="tick" opacity="1" transform="translate(534.7857142857142,0)"><line stroke="#ccd0d8" y2="-470.19999999999993" opacity="0"/><text fill="currentColor" y="3" dy="0.71em">2015</text></g><g class="tick" opacity="1" transform="translate(637.6428571428571,0)"><line stroke="#ccd0d8" y2="-470.19999999999993" opacity="0"/><text fill="currentColor" y="3" dy="0.71em">2020</text></g></g><g style="font-size:12px" fill="none" font-size="10" font-family="sans-serif" text-anchor="end"> <rect x="0" y="78.36666666666666" width="670" height="1" fill="#a9a9a9"/> <g class="tick" opacity="1" transform="translate(0,470.69999999999993)"><line stroke="#ccd0d8" x2="670" opacity=".5"/><text fill="currentColor" x="-3" dy="0.32em">50</text></g><g class="tick" opacity="1" transform="translate(0,392.3333333333333)"><line stroke="#ccd0d8" x2="670" opacity=".5"/><text fill="currentColor" x="-3" dy="0.32em">60</text></g><g class="tick" opacity="1" transform="translate(0,313.96666666666664)"><line stroke="#ccd0d8" x2="670" opacity=".5"/><text fill="currentColor" x="-3" dy="0.32em">70</text></g><g class="tick" opacity="1" transform="translate(0,235.59999999999997)"><line stroke="#ccd0d8" x2="670" opacity=".5"/><text fill="currentColor" x="-3" dy="0.32em">80</text></g><g class="tick" opacity="1" transform="translate(0,157.23333333333332)"><line stroke="#ccd0d8" x2="670" opacity=".5"/><text fill="currentColor" x="-3" dy="0.32em">90</text></g><g class="tick" opacity="1" transform="translate(0,78.86666666666663)"><line stroke="#ccd0d8" x2="670" opacity=".5"/><text fill="currentColor" x="-3" dy="0.32em">100</text></g><g class="tick" opacity="1" transform="translate(0,0.5)"><line stroke="#ccd0d8" x2="670" opacity=".5"/><text fill="currentColor" x="-3" dy="0.32em">110</text></g></g><g><g tabindex="0" role="list" aria-label="line"><path d="M20,78.36666666666663L40.57142857142857,86.20333333333333L61.14285714285714,94.03999999999996L81.71428571428572,94.03999999999996L102.28571428571428,94.03999999999996L122.85714285714286,94.03999999999996L143.42857142857144,94.03999999999996L164,78.36666666666663L184.57142857142856,70.53L205.14285714285714,62.693333333333314L225.7142857142857,54.85666666666667L246.28571428571428,47.01999999999998L266.8571428571429,39.183333333333344L287.42857142857144,39.183333333333344L308,54.85666666666667L328.57142857142856,62.693333333333314L349.1428571428571,70.53L369.7142857142857,70.53L390.2857142857143,86.20333333333333L410.85714285714283,86.20333333333333L431.4285714285714,86.20333333333333L452,86.20333333333333L472.57142857142856,94.03999999999996L493.1428571428571,94.03999999999996L513.7142857142858,94.03999999999996L534.2857142857142,86.20333333333333L554.8571428571429,78.36666666666663L575.4285714285714,70.53L596,62.693333333333314L616.5714285714287,47.01999999999998L637.1428571428571,39.183333333333344L657.7142857142858,0" stroke="#25BB9F" stroke-width="3" stroke-linecap="round" stroke-linejoin="round" fill="none"/></g><g tabindex="0" role="list" aria-label="line"><path d="M20,78.36666666666663L40.57142857142857,101.87666666666665L61.14285714285714,133.2233333333333L81.71428571428572,164.56999999999996L102.28571428571428,172.40666666666667L122.85714285714286,172.40666666666667L143.42857142857144,180.24333333333328L164,188.07999999999998L184.57142857142856,180.24333333333328L205.14285714285714,188.07999999999998L225.7142857142857,172.40666666666667L246.28571428571428,172.40666666666667L266.8571428571429,188.07999999999998L287.42857142857144,203.7533333333333L308,227.26333333333326L328.57142857142856,235.09999999999997L349.1428571428571,250.77333333333328L369.7142857142857,258.60999999999996L390.2857142857143,274.28333333333325L410.85714285714283,305.62999999999994L431.4285714285714,321.3033333333333L452,321.3033333333333L472.57142857142856,329.13999999999993L493.1428571428571,336.97666666666663L513.7142857142858,344.81333333333333L534.2857142857142,344.81333333333333L554.8571428571429,352.65L575.4285714285714,352.65L596,352.65L616.5714285714287,344.81333333333333L637.1428571428571,352.65L657.7142857142858,344.81333333333333" stroke="#22A1CD" stroke-width="3" stroke-linecap="round" stroke-linejoin="round" fill="none"/></g><circle cx="20" cy="78.36666666666663" r="5" fill="#22A1CD"/></g><g><text x="680" y="0" text-anchor="left" font-size="12" font-weight="600" fill="#25BB9F">110</text><text x="680" y="23.510000000000016" text-anchor="left" font-size="12" font-weight="900" fill="#25BB9F">IAA*</text><text x="680" y="344.81333333333333" text-anchor="left" font-size="12" font-weight="600" fill="#22A1CD">66</text><text x="680" y="368.32333333333327" text-anchor="left" font-size="12" font-weight="900" fill="#22A1CD">Ensemble</text><text x="680" y="391.8333333333333" text-anchor="left" font-size="12" font-weight="900" fill="#22A1CD">industrie</text><text x="680" y="415.34333333333325" text-anchor="left" font-size="12" font-weight="900" fill="#22A1CD">manufacturière</text></g></g></svg>