<svg width="840" height="238.42000000000004" role="figure" tabindex="0" xmlns="http://www.w3.org/2000/svg" xmlns:xlink="http://www.w3.org/1999/xlink"><svg><style>text {
      font-family: "Marianne", -apple-system, BlinkMacSystemFont, "Segoe UI",
        Roboto, Oxygen-Sans, Ubuntu, Cantarell, "Helvetica Neue", sans-serif;
    }</style></svg><g transform="translate(20 30)"><g><text x="130" y="0" dy="0" font-size="13" font-weight="normal">Nombre</text><text x="130" y="0" dy="14" font-size="13" font-weight="normal">d'entreprises</text><text x="302.5" y="0" dy="0" font-size="13" font-weight="normal">Salariés</text><text x="302.5" y="0" dy="14" font-size="13" font-weight="normal">(en ETP)</text><text x="475" y="0" dy="0" font-size="13" font-weight="normal">Chiffre</text><text x="475" y="0" dy="14" font-size="13" font-weight="normal">d'affaires</text><text x="647.5" y="0" dy="0" font-size="13" font-weight="normal">Valeur</text><text x="647.5" y="0" dy="14" font-size="13" font-weight="normal">ajoutée</text></g><g tabindex="0" class="bar" role="list" aria-label="bar"><g transform="translate(0 4.2256071414369565)"><text x="-10" y="31.129090909090905" dy="0" text-anchor="start" dominant-baseline="hanging" font-size="13" font-weight="800" fill="black">Industries</text><text x="-10" y="31.129090909090905" dy="13" text-anchor="start" dominant-baseline="hanging" font-size="13" font-weight="800" fill="black">agroalimentaires</text></g><rect width="165.6" height="39.967878787878796" x="130" y="31.129090909090905" fill="#fff"/><rect width="83.01846965699208" height="39.967878787878796" x="130" y="31.129090909090905" fill="#838383"/><text transform="translate(0 10.983939393939398)" text-anchor="start" x="130" dx="8" y="31.129090909090905" dominant-baseline="hanging" font-size="13" fill="white">19 000</text><rect width="165.6" height="39.967878787878796" x="302.5" y="31.129090909090905" fill="#fff"/><rect width="165.6" height="39.967878787878796" x="302.5" y="31.129090909090905" fill="#14607A"/><text transform="translate(0 10.983939393939398)" text-anchor="start" x="302.5" dx="8" y="31.129090909090905" dominant-baseline="hanging" font-size="13" fill="white">463 300</text> Md€<rect width="165.6" height="39.967878787878796" x="475" y="31.129090909090905" fill="#fff"/><rect width="165.6" height="39.967878787878796" x="475" y="31.129090909090905" fill="#C4D9E1"/><text transform="translate(0 10.983939393939398)" text-anchor="start" x="475" dx="8" y="31.129090909090905" dominant-baseline="hanging" font-size="13" fill="black">212 Md€</text> Md€<rect width="165.6" height="39.967878787878796" x="647.5" y="31.129090909090905" fill="#fff"/><rect width="33.415419503276375" height="39.967878787878796" x="647.5" y="31.129090909090905" fill="#FCDA16"/><text transform="translate(0 10.983939393939398)" text-anchor="start" x="647.5" dx="38.415419503276375" y="31.129090909090905" dominant-baseline="hanging" font-size="13" fill="black">43 Md€</text></g><g tabindex="0" class="bar" role="list" aria-label="bar"><g transform="translate(0 4.233939393939398)"><text x="-10" y="88.22606060606061" dy="0" text-anchor="start" dominant-baseline="hanging" font-size="13" font-weight="normal" fill="black">Commerce de</text><text x="-10" y="88.22606060606061" dy="13" text-anchor="start" dominant-baseline="hanging" font-size="13" font-weight="normal" fill="black">gros</text></g><rect width="165.6" height="39.967878787878796" x="130" y="88.22606060606061" fill="#fff"/><rect width="108.3609498680739" height="39.967878787878796" x="130" y="88.22606060606061" fill="#838383"/><text transform="translate(0 10.983939393939398)" text-anchor="start" x="130" dx="8" y="88.22606060606061" dominant-baseline="hanging" font-size="13" fill="white">24 800</text><rect width="165.6" height="39.967878787878796" x="302.5" y="88.22606060606061" fill="#fff"/><rect width="70.16464493848478" height="39.967878787878796" x="302.5" y="88.22606060606061" fill="#14607A"/><text transform="translate(0 10.983939393939398)" text-anchor="start" x="302.5" dx="8" y="88.22606060606061" dominant-baseline="hanging" font-size="13" fill="white">196 300</text> Md€<rect width="165.6" height="39.967878787878796" x="475" y="88.22606060606061" fill="#fff"/><rect width="125.81068565246355" height="39.967878787878796" x="475" y="88.22606060606061" fill="#C4D9E1"/><text transform="translate(0 10.983939393939398)" text-anchor="start" x="475" dx="8" y="88.22606060606061" dominant-baseline="hanging" font-size="13" fill="black">161 Md€</text> Md€<rect width="165.6" height="39.967878787878796" x="647.5" y="88.22606060606061" fill="#fff"/><rect width="12.8565378637199" height="39.967878787878796" x="647.5" y="88.22606060606061" fill="#FCDA16"/><text transform="translate(0 10.983939393939398)" text-anchor="start" x="647.5" dx="17.8565378637199" y="88.22606060606061" dominant-baseline="hanging" font-size="13" fill="black">16 Md€</text></g><g tabindex="0" class="bar" role="list" aria-label="bar"><g transform="translate(0 4.483939393939398)"><text x="-10" y="145.32303030303032" dy="0" text-anchor="start" dominant-baseline="hanging" font-size="13" font-weight="normal" fill="black">Artisanat</text><text x="-10" y="145.32303030303032" dy="13" text-anchor="start" dominant-baseline="hanging" font-size="13" font-weight="normal" fill="black">commercial</text></g><rect width="165.6" height="39.967878787878796" x="130" y="145.32303030303032" fill="#fff"/><rect width="165.6" height="39.967878787878796" x="130" y="145.32303030303032" fill="#838383"/><text transform="translate(0 10.983939393939398)" text-anchor="start" x="130" dx="8" y="145.32303030303032" dominant-baseline="hanging" font-size="13" fill="white">37 900</text><rect width="165.6" height="39.967878787878796" x="302.5" y="145.32303030303032" fill="#fff"/><rect width="64.48141592920355" height="39.967878787878796" x="302.5" y="145.32303030303032" fill="#14607A"/><text transform="translate(0 10.983939393939398)" text-anchor="start" x="302.5" dx="8" y="145.32303030303032" dominant-baseline="hanging" font-size="13" fill="white">180 400</text> Md€<rect width="165.6" height="39.967878787878796" x="475" y="145.32303030303032" fill="#fff"/><rect width="12.750136771438155" height="39.967878787878796" x="475" y="145.32303030303032" fill="#C4D9E1"/><text transform="translate(0 10.983939393939398)" text-anchor="start" x="475" dx="17.750136771438157" y="145.32303030303032" dominant-baseline="hanging" font-size="13" fill="black">16 Md€</text> Md€<rect width="165.6" height="39.967878787878796" x="647.5" y="145.32303030303032" fill="#fff"/><rect width="6.01400879683654" height="39.967878787878796" x="647.5" y="145.32303030303032" fill="#FCDA16"/><text transform="translate(0 10.983939393939398)" text-anchor="start" x="647.5" dx="11.01400879683654" y="145.32303030303032" dominant-baseline="hanging" font-size="13" fill="black">8 Md€</text></g></g></svg>