<svg width="840" height="550.1999999999999" role="figure" tabindex="0" xmlns="http://www.w3.org/2000/svg" xmlns:xlink="http://www.w3.org/1999/xlink"><svg><style>text {
      font-family: "Marianne", -apple-system, BlinkMacSystemFont, "Segoe UI",
        Roboto, Oxygen-Sans, Ubuntu, Cantarell, "Helvetica Neue", sans-serif;
    }</style></svg><g transform="translate(50 15)"><g class="grid vertical-grid"><line x1="25.357142857142854" x2="25.357142857142854" y1="0" y2="505.19999999999993" stroke="#e0e0e0" stroke-width="1"/><line x1="152.14285714285714" x2="152.14285714285714" y1="0" y2="505.19999999999993" stroke="#e0e0e0" stroke-width="1"/><line x1="278.92857142857144" x2="278.92857142857144" y1="0" y2="505.19999999999993" stroke="#e0e0e0" stroke-width="1"/><line x1="405.71428571428567" x2="405.71428571428567" y1="0" y2="505.19999999999993" stroke="#e0e0e0" stroke-width="1"/><line x1="532.5" x2="532.5" y1="0" y2="505.19999999999993" stroke="#e0e0e0" stroke-width="1"/><line x1="659.2857142857143" x2="659.2857142857143" y1="0" y2="505.19999999999993" stroke="#e0e0e0" stroke-width="1"/></g><g/><g/><g style="font-size:12px;transform: translateY(510.19999999999993px)" fill="none" font-size="10" font-family="sans-serif" text-anchor="middle"> <g class="tick" opacity="1" transform="translate(25.857142857142854,0)"><line stroke="#ccd0d8" y2="-505.19999999999993" opacity="0"/><text fill="currentColor" y="3" dy="0.71em">1995</text></g><g class="tick" opacity="1" transform="translate(152.64285714285714,0)"><line stroke="#ccd0d8" y2="-505.19999999999993" opacity="0"/><text fill="currentColor" y="3" dy="0.71em">2000</text></g><g class="tick" opacity="1" transform="translate(279.42857142857144,0)"><line stroke="#ccd0d8" y2="-505.19999999999993" opacity="0"/><text fill="currentColor" y="3" dy="0.71em">2005</text></g><g class="tick" opacity="1" transform="translate(406.21428571428567,0)"><line stroke="#ccd0d8" y2="-505.19999999999993" opacity="0"/><text fill="currentColor" y="3" dy="0.71em">2010</text></g><g class="tick" opacity="1" transform="translate(533,0)"><line stroke="#ccd0d8" y2="-505.19999999999993" opacity="0"/><text fill="currentColor" y="3" dy="0.71em">2015</text></g><g class="tick" opacity="1" transform="translate(659.7857142857143,0)"><line stroke="#ccd0d8" y2="-505.19999999999993" opacity="0"/><text fill="currentColor" y="3" dy="0.71em">2020</text></g></g><g style="font-size:12px" fill="none" font-size="10" font-family="sans-serif" text-anchor="end"><rect x="0" y="503.18725099601585" width="690" height="2" fill="#999999"/>  <g class="tick" opacity="1" transform="translate(0,505.69999999999993)"><line stroke="#ccd0d8" x2="690" opacity=".5"/><text fill="currentColor" x="-3" dy="0.32em">0</text></g><g class="tick" opacity="1" transform="translate(0,413.84545454545446)"><line stroke="#ccd0d8" x2="690" opacity=".5"/><text fill="currentColor" x="-3" dy="0.32em">10</text></g><g class="tick" opacity="1" transform="translate(0,321.99090909090904)"><line stroke="#ccd0d8" x2="690" opacity=".5"/><text fill="currentColor" x="-3" dy="0.32em">20</text></g><g class="tick" opacity="1" transform="translate(0,230.13636363636363)"><line stroke="#ccd0d8" x2="690" opacity=".5"/><text fill="currentColor" x="-3" dy="0.32em">30</text></g><g class="tick" opacity="1" transform="translate(0,138.28181818181815)"><line stroke="#ccd0d8" x2="690" opacity=".5"/><text fill="currentColor" x="-3" dy="0.32em">40</text></g><g class="tick" opacity="1" transform="translate(0,46.42727272727274)"><line stroke="#ccd0d8" x2="690" opacity=".5"/><text fill="currentColor" x="-3" dy="0.32em">50 Md€</text></g></g><g><g tabindex="0" role="list" aria-label="line"><path d="M25.357142857142854,174.99209454545453L50.71428571428571,190.49714181818177L76.07142857142857,191.5350981818181L101.42857142857142,188.70597818181815L126.78571428571429,181.04530909090906L152.14285714285714,175.46973818181814L177.5,171.12501818181818L202.85714285714283,168.8837672727273L228.21428571428572,166.9364509090909L253.57142857142858,162.51824727272722L278.92857142857144,173.38463999999996L304.2857142857143,168.62657454545453L329.64285714285717,166.19242909090912L355,175.14824727272722L380.35714285714283,175.27684363636362L405.71428571428567,162.61010181818182L431.07142857142856,160.1024727272727L456.42857142857144,149.5024581818182L481.78571428571433,138.2135345454545L507.14285714285717,127.87989818181812L532.5,104.78766545454545L557.8571428571429,83.82645818181815L583.2142857142857,79.83078545454545L608.5714285714286,73.36422545454543L633.9285714285714,64.95953454545457L659.2857142857143,37.1184218181818L684.6428571428571,47.038712727272724" stroke="#D06B01" stroke-width="3" stroke-linecap="round" stroke-linejoin="round" fill="none"/></g><g tabindex="0" role="list" aria-label="line"><path d="M25.357142857142854,218.32906909090903L50.71428571428571,213.92005090909086L76.07142857142857,212.92802181818183L101.42857142857142,195.38380363636364L126.78571428571429,197.49645818181813L152.14285714285714,190.43284363636363L177.5,190.6165527272727L202.85714285714283,173.9265818181818L228.21428571428572,162.61928727272726L253.57142857142858,148.41857454545456L278.92857142857144,157.42031999999998L304.2857142857143,164.01547636363637L329.64285714285717,148.59309818181814L355,151.77126545454547L380.35714285714283,157.27335272727268L405.71428571428567,164.90646545454544L431.07142857142856,145.58026909090904L456.42857142857144,138.18597818181811L481.78571428571433,123.27798545454543L507.14285714285717,111.82372363636361L532.5,102.99650181818183L557.8571428571429,95.57465454545455L583.2142857142857,93.42525818181817L608.5714285714286,94.74796363636358L633.9285714285714,80.68503272727271L659.2857142857143,80.47376727272729L684.6428571428571,105.24693818181815" stroke="#1D81A2" stroke-width="3" stroke-linecap="round" stroke-linejoin="round" fill="none"/></g><g tabindex="0" role="list" aria-label="line"><path d="M25.357142857142854,351.2334109090909L50.71428571428571,328.00339636363634L76.07142857142857,316.90736727272724L101.42857142857142,309.86212363636366L126.78571428571429,312.8565818181817L152.14285714285714,303.69868363636357L177.5,301.3747636363636L202.85714285714283,286.89848727272727L228.21428571428572,286.0534254545454L253.57142857142858,281.1116509090909L278.92857142857144,285.7962327272727L304.2857142857143,285.9891272727273L329.64285714285717,276.6199636363636L355,274.2684872727272L380.35714285714283,275.82082909090906L405.71428571428567,270.6402327272727L431.07142857142856,274.4338254545454L456.42857142857144,281.4055854545454L481.78571428571433,278.7142472727272L507.14285714285717,272.67021818181814L532.5,257.44073454545446L557.8571428571429,248.79722181818178L583.2142857142857,244.95770181818176L608.5714285714286,234.18316363636362L633.9285714285714,227.28488727272725L659.2857142857143,235.7998036363636L684.6428571428571,216.58383272727272" stroke="#26BFA5" stroke-width="3" stroke-linecap="round" stroke-linejoin="round" fill="none"/></g><g tabindex="0" role="list" aria-label="line"><path d="M25.357142857142854,387.3873599999999L50.71428571428571,382.8497454545454L76.07142857142857,382.05979636363634L101.42857142857142,379.72669090909085L126.78571428571429,372.4518109090909L152.14285714285714,371.97416727272724L177.5,364.83706909090904L202.85714285714283,357.3325527272727L228.21428571428572,345.033229090909L253.57142857142858,336.2060072727273L278.92857142857144,316.8522545454545L304.2857142857143,310.982749090909L329.64285714285717,291.54632727272724L355,280.93712727272725L380.35714285714283,283.2059345454545L405.71428571428567,279.7338327272727L431.07142857142856,271.89863999999994L456.42857142857144,277.13434909090904L481.78571428571433,281.29535999999996L507.14285714285717,281.91078545454536L532.5,280.19310545454545L557.8571428571429,275.15029090909087L583.2142857142857,268.2152727272727L608.5714285714286,280.9738690909091L633.9285714285714,266.5802618181818L659.2857142857143,279.7613890909091L684.6428571428571,268.7572145454545" stroke="#FDC651" stroke-width="3" stroke-linecap="round" stroke-linejoin="round" fill="none"/></g><g tabindex="0" role="list" aria-label="line"><path d="M25.357142857142854,415.7979709090908L50.71428571428571,416.27561454545446L76.07142857142857,419.53645090909083L101.42857142857142,416.7532581818181L126.78571428571429,409.8274254545454L152.14285714285714,410.6449309090908L177.5,404.9958763636363L202.85714285714283,400.302109090909L228.21428571428572,397.08719999999994L253.57142857142858,395.29603636363635L278.92857142857144,392.4669163636363L304.2857142857143,402.54335999999995L329.64285714285717,399.291709090909L355,403.1036727272727L380.35714285714283,397.8955199999999L405.71428571428567,400.25618181818174L431.07142857142856,396.30643636363635L456.42857142857144,385.1736654545454L481.78571428571433,381.72911999999997L507.14285714285717,374.5093527272727L532.5,372.010909090909L557.8571428571429,365.8199127272727L583.2142857142857,360.74954181818174L608.5714285714286,356.2027418181818L633.9285714285714,352.40914909090907L659.2857142857143,346.2457090909091L684.6428571428571,342.1857381818182" stroke="#22A1CD" stroke-width="3" stroke-linecap="round" stroke-linejoin="round" fill="none"/></g><g tabindex="0" role="list" aria-label="line"><path d="M25.357142857142854,465.1330472727272L50.71428571428571,460.3749818181817L76.07142857142857,453.4675199999999L101.42857142857142,450.47306181818175L126.78571428571429,451.01500363636353L152.14285714285714,453.14602909090905L177.5,451.832509090909L202.85714285714283,453.13684363636355L228.21428571428572,456.4711636363636L253.57142857142858,457.27029818181813L278.92857142857144,438.2196654545454L304.2857142857143,429.87008727272723L329.64285714285717,429.03421090909086L355,413.9241381818181L380.35714285714283,412.75758545454545L405.71428571428567,408.47716363636357L431.07142857142856,414.45689454545453L456.42857142857144,412.86781090909085L481.78571428571433,413.29952727272723L507.14285714285717,393.27523636363634L532.5,378.96429818181815L557.8571428571429,380.08492363636356L583.2142857142857,379.63483636363634L608.5714285714286,373.2693163636363L633.9285714285714,363.8358545454545L659.2857142857143,382.9691563636363L684.6428571428571,377.7977454545454" stroke="#C71E1D" stroke-width="3" stroke-linecap="round" stroke-linejoin="round" fill="none"/></g></g><g><text x="695" y="47.038712727272724" text-anchor="left" font-size="12" font-weight="600" fill="#D06B01">Allemagne</text><text x="695" y="105.24693818181815" text-anchor="left" font-size="12" font-weight="600" fill="#1D81A2">France</text><text x="695" y="216.58383272727272" text-anchor="left" font-size="12" font-weight="600" fill="#26BFA5">Italie</text><text x="695" y="268.7572145454545" text-anchor="left" font-size="12" font-weight="600" fill="#FDC651">Espagne</text><text x="695" y="342.1857381818182" text-anchor="left" font-size="12" font-weight="600" fill="#22A1CD">Pays-Bas</text><text x="695" y="377.7977454545454" text-anchor="left" font-size="12" font-weight="600" fill="#C71E1D">Pologne</text></g></g></svg>