<svg width="840" height="550.1999999999999" role="figure" tabindex="0" xmlns="http://www.w3.org/2000/svg" xmlns:xlink="http://www.w3.org/1999/xlink"><svg><style>text {
      font-family: "Marianne", -apple-system, BlinkMacSystemFont, "Segoe UI",
        Roboto, Oxygen-Sans, Ubuntu, Cantarell, "Helvetica Neue", sans-serif;
    }</style></svg><g transform="translate(40 40)"><g class="grid vertical-grid"><line x1="10" x2="10" y1="0" y2="460.19999999999993" stroke="#e0e0e0" stroke-width="1"/><line x1="121.66666666666666" x2="121.66666666666666" y1="0" y2="460.19999999999993" stroke="#e0e0e0" stroke-width="1"/><line x1="233.33333333333331" x2="233.33333333333331" y1="0" y2="460.19999999999993" stroke="#e0e0e0" stroke-width="1"/><line x1="345" x2="345" y1="0" y2="460.19999999999993" stroke="#e0e0e0" stroke-width="1"/><line x1="456.66666666666663" x2="456.66666666666663" y1="0" y2="460.19999999999993" stroke="#e0e0e0" stroke-width="1"/><line x1="568.3333333333334" x2="568.3333333333334" y1="0" y2="460.19999999999993" stroke="#e0e0e0" stroke-width="1"/><line x1="680" x2="680" y1="0" y2="460.19999999999993" stroke="#e0e0e0" stroke-width="1"/></g><g/><g/><g style="font-size:12px;transform: translateY(465.19999999999993px)" fill="none" font-size="10" font-family="sans-serif" text-anchor="middle"> <g class="tick" opacity="1" transform="translate(10.5,0)"><line stroke="#ccd0d8" y2="-460.19999999999993" opacity="0"/><text fill="currentColor" y="3" dy="0.71em">2010</text></g><g class="tick" opacity="1" transform="translate(122.16666666666666,0)"><line stroke="#ccd0d8" y2="-460.19999999999993" opacity="0"/><text fill="currentColor" y="3" dy="0.71em">2012</text></g><g class="tick" opacity="1" transform="translate(233.83333333333331,0)"><line stroke="#ccd0d8" y2="-460.19999999999993" opacity="0"/><text fill="currentColor" y="3" dy="0.71em">2014</text></g><g class="tick" opacity="1" transform="translate(345.5,0)"><line stroke="#ccd0d8" y2="-460.19999999999993" opacity="0"/><text fill="currentColor" y="3" dy="0.71em">2016</text></g><g class="tick" opacity="1" transform="translate(457.16666666666663,0)"><line stroke="#ccd0d8" y2="-460.19999999999993" opacity="0"/><text fill="currentColor" y="3" dy="0.71em">2018</text></g><g class="tick" opacity="1" transform="translate(568.8333333333334,0)"><line stroke="#ccd0d8" y2="-460.19999999999993" opacity="0"/><text fill="currentColor" y="3" dy="0.71em">2020</text></g><g class="tick" opacity="1" transform="translate(680.5,0)"><line stroke="#ccd0d8" y2="-460.19999999999993" opacity="0"/><text fill="currentColor" y="3" dy="0.71em">2022</text></g></g><g style="font-size:12px" fill="none" font-size="10" font-family="sans-serif" text-anchor="end"><rect x="0" y="458.36653386454174" width="685" height="2" fill="#999999"/>  <g class="tick" opacity="1" transform="translate(0,460.69999999999993)"><line stroke="#ccd0d8" x2="685" opacity=".5"/><text fill="currentColor" x="-3" dy="0.32em">0 %</text></g><g class="tick" opacity="1" transform="translate(0,383.99999999999994)"><line stroke="#ccd0d8" x2="685" opacity=".5"/><text fill="currentColor" x="-3" dy="0.32em">0,5 %</text></g><g class="tick" opacity="1" transform="translate(0,307.3)"><line stroke="#ccd0d8" x2="685" opacity=".5"/><text fill="currentColor" x="-3" dy="0.32em">1 %</text></g><g class="tick" opacity="1" transform="translate(0,230.59999999999997)"><line stroke="#ccd0d8" x2="685" opacity=".5"/><text fill="currentColor" x="-3" dy="0.32em">1,5 %</text></g><g class="tick" opacity="1" transform="translate(0,153.9)"><line stroke="#ccd0d8" x2="685" opacity=".5"/><text fill="currentColor" x="-3" dy="0.32em">2 %</text></g><g class="tick" opacity="1" transform="translate(0,77.19999999999997)"><line stroke="#ccd0d8" x2="685" opacity=".5"/><text fill="currentColor" x="-3" dy="0.32em">2,5 %</text></g><g class="tick" opacity="1" transform="translate(0,0.5)"><line stroke="#ccd0d8" x2="685" opacity=".5"/><text fill="currentColor" x="-3" dy="0.32em">3 %</text></g></g><g><g tabindex="0" role="list" aria-label="line"><path d="M10,168.73999999999998L65.83333333333333,168.73999999999998L121.66666666666666,168.73999999999998L177.5,153.4L233.33333333333331,153.4L289.1666666666667,153.4L345,153.4L400.83333333333337,153.4L456.66666666666663,168.73999999999998L512.5,168.73999999999998L568.3333333333334,153.4L624.1666666666666,199.42L680,168.73999999999998" stroke="#C76BDF" stroke-width="3" stroke-linecap="round" stroke-linejoin="round" fill="none"/></g><g tabindex="0" role="list" aria-label="line"><path d="M10,214.75999999999996L65.83333333333333,199.42L121.66666666666666,214.75999999999996L177.5,230.09999999999997L233.33333333333331,214.75999999999996L289.1666666666667,214.75999999999996L345,245.44L400.83333333333337,230.09999999999997L456.66666666666663,199.42L512.5,230.09999999999997L568.3333333333334,214.75999999999996L624.1666666666666,214.75999999999996L680,168.73999999999998" stroke="#18BFA5" stroke-width="3" stroke-linecap="round" stroke-linejoin="round" fill="none"/></g></g><g><text x="695" y="153.4" text-anchor="left" font-size="12" font-weight="900" fill="#C76BDF">IAA</text><text x="695" y="184.07999999999998" text-anchor="left" font-size="12" font-weight="900" fill="#18BFA5">Agriculture*</text></g></g></svg>